<?xml version="1.0" encoding="iso-8859-1"?>
<!-- Generator: Adobe Illustrator 19.0.0, SVG Export Plug-In . SVG Version: 6.00 Build 0)  -->
<svg version="1.1" id="Layer_1" xmlns="http://www.w3.org/2000/svg" xmlns:xlink="http://www.w3.org/1999/xlink" x="0px" y="0px"
	 viewBox="0 0 512.01 512.01" style="enable-background:new 0 0 512.01 512.01;" xml:space="preserve">
<g>
	<g>
		<circle cx="307.205" cy="298.674" r="17.067"/>
	</g>
</g>
<g>
	<g>
		<circle cx="213.338" cy="204.807" r="17.067"/>
	</g>
</g>
<g>
	<g>
		<path d="M510.025,301.746l-38.11-45.739l38.11-45.739c2.125-2.543,2.577-6.084,1.178-9.079c-1.408-2.995-4.42-4.915-7.731-4.915
			H391.403l-7.484-52.403c-0.597-4.207-4.198-7.33-8.448-7.33h-65.178c-10.052-8.38-48.828-40.687-48.828-40.687
			c-3.166-2.645-7.757-2.645-10.923,0l-48.828,40.687h-65.178c-4.25,0-7.842,3.123-8.448,7.322l-7.484,52.412H8.538
			c-3.311,0-6.323,1.92-7.731,4.915c-1.408,3.004-0.947,6.545,1.178,9.079l38.11,45.739l-38.11,45.739
			c-2.125,2.543-2.577,6.084-1.178,9.079c1.408,3.004,4.42,4.915,7.731,4.915h112.068c2.278,15.915,7.492,52.412,7.492,52.412
			c0.597,4.207,4.198,7.322,8.439,7.322h65.178l48.828,40.687c1.587,1.323,3.524,1.98,5.461,1.98s3.883-0.657,5.461-1.98
			l48.819-40.687c13.261,0,65.203,0.034,65.186,0c4.25,0,7.842-3.123,8.448-7.322c0,0,5.214-36.497,7.492-52.412h112.06
			c3.311,0,6.323-1.92,7.731-4.915C512.611,307.821,512.15,304.28,510.025,301.746z M78.785,261.468l31.002,37.205H26.757
			l31.002-37.205c2.637-3.166,2.637-7.765,0-10.923L26.757,213.34h83.029l-31.002,37.205
			C76.148,253.711,76.148,258.311,78.785,261.468z M213.338,170.674c18.825,0,34.133,15.309,34.133,34.133
			s-15.309,34.133-34.133,34.133c-18.825,0-34.133-15.309-34.133-34.133S194.522,170.674,213.338,170.674z M193.771,330.307
			c-1.664,1.673-3.849,2.5-6.033,2.5c-2.185,0-4.369-0.836-6.033-2.5c-3.337-3.337-3.337-8.73,0-12.066l136.533-136.533
			c3.337-3.337,8.73-3.337,12.066,0s3.337,8.73,0,12.066L193.771,330.307z M307.205,332.807c-18.825,0-34.133-15.309-34.133-34.133
			s15.309-34.133,34.133-34.133s34.133,15.309,34.133,34.133S326.029,332.807,307.205,332.807z M402.223,298.674l31.002-37.205
			c2.637-3.166,2.637-7.765,0-10.923l-31.002-37.205h83.029l-31.002,37.205c-2.637,3.166-2.637,7.765,0,10.923l31.002,37.205
			H402.223z"/>
	</g>
</g>
<g>
</g>
<g>
</g>
<g>
</g>
<g>
</g>
<g>
</g>
<g>
</g>
<g>
</g>
<g>
</g>
<g>
</g>
<g>
</g>
<g>
</g>
<g>
</g>
<g>
</g>
<g>
</g>
<g>
</g>
</svg>
